#!OML:ASF E:\acrobat2\Project_11_07_03\Capture day 1\Session 1\Acrobat.ASF
:FULLY-SPECIFIED
:DEGREES
17
root 8.32998 17.2665 23.7995 -55.0536 -21.6576 -154.479
lowerback 8.31696 5.77957 -2.58128
upperback -0.601411 7.2804 -1.66785
thorax -5.37369 3.59825 -1.23666
lowerneck -10.4687 11.7366 7.69333
upperneck -21.1964 14.6194 -12.3775
head -3.19065 8.2708 -4.89997
rclavicle 3.18055e-014 -4.05521e-014
rhumerus 91.1292 0.585985 -96.9151
rradius 30.0106
rwrist 22.0072
rhand -26.778 -49.5258
rfingers 7.12502
rthumb -0.205629 -79.5055
lclavicle 3.18055e-014 -4.05521e-014
lhumerus 77.8484 23.8186 49.2022
lradius 33.3583
lwrist 12.787
lhand -35.7817 -30.2437
lfingers 7.12502
lthumb -8.89918 -0.451356
rfemur 10.4664 8.35519 19.8099
rtibia 34.4196
rfoot -189.656 -164.55
rtoes -23.1912
lfemur -71.9704 31.814 22.2922
ltibia 15.0973
lfoot -20.3747 18.1761
ltoes 21.1499
18
root 8.32762 17.2645 22.6854 -48.2943 -22.6916 -160.083
lowerback 9.06464 4.75238 -0.484634
upperback -1.15211 6.15621 -1.32498
thorax -6.1807 2.99518 -1.98474
lowerneck -12.8288 9.69879 5.89959
upperneck -22.3256 12.3238 -10.182
head -3.70273 7.27922 -4.04655
rclavicle -2.14687e-014 3.49861e-014
rhumerus 91.0748 1.62993 -99.1486
rradius 32.2096
rwrist 22.9814
rhand -30.1709 -52.8546
rfingers 7.12502
rthumb -3.48248 -82.8059
lclavicle -2.14687e-014 3.49861e-014
lhumerus 79.1114 23.6961 48.9015
lradius 34.4012
lwrist 13.9212
lhand -40.9416 -38.582
lfingers 7.12502
lthumb -13.8753 -9.06488
rfemur 15.0839 8.04712 20.0566
rtibia 35.8685
rfoot -193.978 -175.372
rtoes -54.731
lfemur -75.768 28.6776 16.8792
ltibia 8.97826
lfoot -11.9359 -10.4507
ltoes 73.0734
19
root 8.30687 17.202 21.5916 -40.6305 -23.4887 -166.323
lowerback 9.03218 3.93263 2.88587
upperback -2.54085 5.56154 -0.611234
thorax -7.40554 2.57437 -3.09433
lowerneck -8.90821 9.94131 7.95152
upperneck -25.7932 11.8624 -13.3639
head -5.00287 7.23864 -5.77022
rclavicle -1.03368e-014 6.36111e-015
rhumerus 93.6541 1.81437 -100.05
rradius 31.0056
rwrist 22.6956
rhand -39.3794 -66.8559
rfingers 7.12502
rthumb -12.3694 96.4699
lclavicle -1.03368e-014 6.36111e-015
lhumerus 79.2116 22.8478 48.6522
lradius 35.3998
lwrist 16.1366
lhand -43.5331 -47.5974
lfingers 7.12502
lthumb -16.3717 -18.2684
rfemur 17.3015 8.80718 23.2882
rtibia 39.1779
rfoot -196.07 -173.165
rtoes -52.5724
lfemur -78.3018 25.286 12.7263
ltibia 7.28205
lfoot -12.5846 3.17127
ltoes 74.1278
20
root 8.27593 17.1008 20.5603 -33.9027 -22.4767 -170.955
lowerback 8.27388 3.30808 4.89945
upperback -3.83085 5.01692 -0.350148
thorax -8.25775 2.18326 -3.86658
lowerneck -6.13884 9.54964 8.04238
upperneck -27.0023 10.2192 -13.7672
head -5.91147 4.02673 -5.93784
rclavicle 2.26615e-014 4.17448e-014
rhumerus 94.4004 1.47733 -100.072
rradius 32.2544
rwrist 19.9981
rhand -39.3917 -72.3872
rfingers 7.12502
rthumb -12.3813 102.001
lclavicle 2.26615e-014 4.17448e-014
lhumerus 78.1836 21.7345 49.3467
lradius 37.6778
lwrist 17.0253
lhand -45.1768 -55.6157
lfingers 7.12502
lthumb -17.9538 -26.4244
rfemur 20.0305 8.0904 24.2588
rtibia 39.9184
rfoot -197.293 -172.968
rtoes -50.7214
lfemur -77.3514 21.2673 7.74556
ltibia 8.61348
lfoot -7.00179 -4.04083
ltoes 72.0165
21
root 8.26177 16.9993 19.583 -27.524 -21.6148 -175.897
lowerback 7.43194 3.86343 7.8019
upperback -5.21737 6.01139 -1.07049
thorax -8.84492 2.36445 -6.36362
lowerneck -1.05477 7.64353 12.7832
upperneck -29.9615 7.80699 -15.5636
head -7.67595 2.68694 -7.82084
rclavicle -1.71452e-014 -1.15295e-014
rhumerus 90.1346 -4.0777 -95.8772
rradius 40.7627
rwrist 15.8999
rhand -39.7633 -74.8423
rfingers 7.12502
rthumb -12.7396 104.434
lclavicle -1.71452e-014 -1.15295e-014
lhumerus 77.8949 17.1792 50.3483
lradius 41.5095
lwrist 17.586
lhand -45.664 -59.3505
lfingers 7.12502
lthumb -18.4225 -30.2029
rfemur 23.1264 6.98082 26.6236
rtibia 40.0605
rfoot -199.149 -174.742
rtoes -47.0565
lfemur -73.0483 17.52 4.32266
ltibia 6.43149
lfoot 2.80038 -3.01876
ltoes 72.4818
22
root 8.26933 16.9272 18.775 -23.8368 -20.1769 -174.794
lowerback 5.76134 4.04209 4.93329
upperback -5.60207 5.80325 -1.40943
thorax -8.52721 2.48972 -4.98142
lowerneck 1.27508 6.76825 13.6253
upperneck -32.3976 6.67825 -16.7385
head -9.02333 2.11856 -8.71216
rclavicle -1.59028e-015 -2.73329e-014
rhumerus 86.5066 -5.85083 -89.4366
rradius 44.6442
rwrist 12.5598
rhand -40.3895 -76.033
rfingers 7.12502
rthumb -13.3433 105.586
lclavicle -1.59028e-015 -2.73329e-014
lhumerus 75.454 17.1266 48.4008
lradius 43.2422
lwrist 19.3174
lhand -46.5184 -62.8394
lfingers 7.12502
lthumb -19.2443 -33.7716
rfemur 27.3812 6.65081 21.9529
rtibia 38.7446
rfoot -199.785 -174.674
rtoes -42.9786
lfemur -65.7049 15.271 -3.52411
ltibia 1.80849
lfoot 16.5833 -6.00721
ltoes 74.0885
23
root 8.25601 16.9173 18.0251 -19.4457 -19.0046 -174.503
lowerback 3.89812 3.96359 3.19261
upperback -6.03376 5.42625 -1.65963
thorax -8.0691 2.41321 -4.10001
lowerneck 2.5627 6.21077 13.6763
upperneck -35.2284 5.84818 -17.4235
head -10.4461 1.57801 -9.30336
rclavicle 2.09221e-014 1.19271e-014
rhumerus 85.4768 -7.74658 -84.282
rradius 45.6706
rwrist 10.6414
rhand -40.4243 -77.0001
rfingers 7.12502
rthumb -13.3767 106.551
lclavicle 2.09221e-014 1.19271e-014
lhumerus 74.5019 17.4311 47.1904
lradius 43.4748
lwrist 20.1598
lhand -46.9811 -66.1909
lfingers 7.12502
lthumb -19.6891 -37.168
rfemur 30.881 6.25194 18.3388
rtibia 37.9282
rfoot -199.02 -173.5
rtoes -36.025
lfemur -59.0929 14.3698 -10.3576
ltibia -2.42456
lfoot 27.8011 -9.76436
ltoes 74.6144
